# xmcd
#
# Track frame offsets: 
#        150
#        16442
#        30652
#        48570
#        60107
#        78715
#        96637
#        115282
#        129807
#        143485
#        154045
#        165892
#        178522
#        194585
#        211417
#        226362
#        247752
#
# Disc length: 3482 seconds
#
# Revision: 0
# Processed by: cddbd v1.5.1PL0 Copyright (c) Steve Scherf et al.
# Submitted via: ExactAudioCopy v0.90b4
#
DISCID=d70d9811
DTITLE=Sonny Terry - Wizard of the Harmonica
DYEAR=1971
DGENRE=Blues
TTITLE0=Diggin' My Potatoes
TTITLE1=Harmonica Blues
TTITLE2=My Key Won't Fit No More
TTITLE3=Fox Chase
TTITLE4=Easy Rider
TTITLE5=Goin' Down Slow
TTITLE6=Take This Hammer
TTITLE7=Old Lost John
TTITLE8=I'm Crazy 'Bout Your Pie
TTITLE9=Freight Train Rollin' On
TTITLE10=Pretty Little Girl
TTITLE11=Cousin John
TTITLE12=I'm Afraid of Fire
TTITLE13=Sweetest Girl I Know
TTITLE14=Blues with a Whoop
TTITLE15=I Woke Up with the Blues
TTITLE16=You Can't Get Away
EXTD=
EXTT0=
EXTT1=
EXTT2=
EXTT3=
EXTT4=
EXTT5=
EXTT6=
EXTT7=
EXTT8=
EXTT9=
EXTT10=
EXTT11=
EXTT12=
EXTT13=
EXTT14=
EXTT15=
EXTT16=
PLAYORDER=
